<svg width="206" height="19" viewBox="0 0 206 19" fill="none" xmlns="http://www.w3.org/2000/svg">
<path d="M4.72 9.44C7.32678 9.44 9.44 7.32678 9.44 4.72C9.44 2.11322 7.32678 0 4.72 0C2.11322 0 0 2.11322 0 4.72C0 7.32678 2.11322 9.44 4.72 9.44Z" fill="#BABABA"/>
<path d="M15.3899 9.44C17.9967 9.44 20.1099 7.32678 20.1099 4.72C20.1099 2.11322 17.9967 0 15.3899 0C12.7831 0 10.6699 2.11322 10.6699 4.72C10.6699 7.32678 12.7831 9.44 15.3899 9.44Z" fill="#BABABA"/>
<path d="M10.0501 18.8799C12.6569 18.8799 14.7701 16.7667 14.7701 14.1599C14.7701 11.5532 12.6569 9.43994 10.0501 9.43994C7.44329 9.43994 5.33008 11.5532 5.33008 14.1599C5.33008 16.7667 7.44329 18.8799 10.0501 18.8799Z" fill="#BABABA"/>
<path d="M26.9102 14.97V3.85996C26.9102 3.67996 27.0102 3.57996 27.1902 3.57996H28.9102C29.0602 3.57996 29.1602 3.62996 29.2402 3.75996L33.4102 10.7C33.4602 10.78 33.5302 10.77 33.5302 10.67V3.85996C33.5302 3.67996 33.6302 3.57996 33.8102 3.57996H35.5602C35.7402 3.57996 35.8402 3.67996 35.8402 3.85996V14.97C35.8402 15.15 35.7402 15.25 35.5602 15.25H33.8602C33.7102 15.25 33.6102 15.18 33.5302 15.05L29.3402 8.04996C29.2902 7.96996 29.2202 7.97996 29.2202 8.07996L29.2402 14.97C29.2402 15.15 29.1402 15.25 28.9602 15.25H27.1902C27.0102 15.25 26.9102 15.15 26.9102 14.97Z" fill="#BABABA"/>
<path d="M48.9401 5.58996H43.5701C43.5701 5.58996 43.4701 5.61996 43.4701 5.68996V8.23996C43.4701 8.30996 43.5001 8.33996 43.5701 8.33996H47.0601C47.2401 8.33996 47.3401 8.43996 47.3401 8.61996V10.07C47.3401 10.25 47.2401 10.35 47.0601 10.35H43.5701C43.5701 10.35 43.4701 10.38 43.4701 10.45V13.12C43.4701 13.12 43.5001 13.22 43.5701 13.22H48.9401C49.1201 13.22 49.2201 13.32 49.2201 13.5V14.95C49.2201 15.13 49.1201 15.23 48.9401 15.23H41.4001C41.2201 15.23 41.1201 15.13 41.1201 14.95V3.85996C41.1201 3.67996 41.2201 3.57996 41.4001 3.57996H48.9401C49.1201 3.57996 49.2201 3.67996 49.2201 3.85996V5.30996C49.2201 5.48996 49.1201 5.58996 48.9401 5.58996Z" fill="#BABABA"/>
<path d="M53.9702 11.1999V7.62994C53.9702 5.12994 55.7202 3.43994 58.3602 3.43994C61.0002 3.43994 62.7602 5.11994 62.7602 7.62994V11.1999C62.7602 13.7399 61.0102 15.4399 58.3602 15.4399C55.7102 15.4399 53.9702 13.7399 53.9702 11.1999ZM60.4002 11.2799V7.60994C60.4002 6.30994 59.5802 5.45994 58.3502 5.45994C57.1202 5.45994 56.3202 6.30994 56.3202 7.60994V11.2799C56.3202 12.5599 57.1402 13.4099 58.3502 13.4099C59.5602 13.4099 60.4002 12.5599 60.4002 11.2799Z" fill="#BABABA"/>
<path d="M80.7101 15.0299L78.6601 10.4899C78.6401 10.4399 78.5901 10.4099 78.5401 10.4099H77.0201C76.9501 10.4099 76.9201 10.4399 76.9201 10.5099V14.9599C76.9201 15.1399 76.8201 15.2399 76.6401 15.2399H74.8601C74.6801 15.2399 74.5801 15.1399 74.5801 14.9599V3.83994C74.5801 3.65994 74.6801 3.55994 74.8601 3.55994H79.5501C81.7001 3.55994 83.1201 4.97994 83.1201 7.07994C83.1201 8.59994 82.3001 9.72994 80.9901 10.1799C80.9201 10.1999 80.9101 10.2599 80.9401 10.3099L83.1401 14.9099C83.2401 15.0899 83.1601 15.2399 82.9401 15.2399H81.0601C80.9101 15.2399 80.7901 15.1599 80.7301 15.0199L80.7101 15.0299ZM76.9201 5.68994V8.48994C76.9201 8.53994 76.9501 8.58994 77.0201 8.58994H79.1901C80.1201 8.58994 80.7701 7.98994 80.7701 7.10994C80.7701 6.22994 80.1201 5.58994 79.1901 5.58994H77.0201C76.9501 5.58994 76.9201 5.61994 76.9201 5.68994Z" fill="#BABABA"/>
<path d="M95.9701 5.58996H90.6001C90.6001 5.58996 90.5001 5.61996 90.5001 5.68996V8.23996C90.5001 8.30996 90.5301 8.33996 90.6001 8.33996H94.0901C94.2701 8.33996 94.3701 8.43996 94.3701 8.61996V10.07C94.3701 10.25 94.2701 10.35 94.0901 10.35H90.6001C90.6001 10.35 90.5001 10.38 90.5001 10.45V13.12C90.5001 13.12 90.5301 13.22 90.6001 13.22H95.9701C96.1501 13.22 96.2501 13.32 96.2501 13.5V14.95C96.2501 15.13 96.1501 15.23 95.9701 15.23H88.4301C88.2501 15.23 88.1501 15.13 88.1501 14.95V3.85996C88.1501 3.67996 88.2501 3.57996 88.4301 3.57996H95.9701C96.1501 3.57996 96.2501 3.67996 96.2501 3.85996V5.30996C96.2501 5.48996 96.1501 5.58996 95.9701 5.58996Z" fill="#BABABA"/>
<path d="M100.85 11.9V11.62C100.85 11.44 100.95 11.34 101.13 11.34H102.88C103.06 11.34 103.16 11.42 103.16 11.56V11.79C103.16 12.64 104.01 13.37 105.36 13.37C106.63 13.37 107.09 12.74 107.09 12.07C107.09 11.22 106.24 10.92 104.65 10.34C102.92 9.73995 100.91 8.95995 100.91 6.74995C100.91 4.69995 102.59 3.44995 104.98 3.44995C107.55 3.44995 109.37 4.87995 109.37 7.02995V7.19995C109.37 7.37995 109.27 7.47995 109.09 7.47995H107.34C107.16 7.47995 107.06 7.40995 107.06 7.30995V7.13995C107.06 6.26995 106.31 5.45995 104.91 5.45995C103.84 5.45995 103.24 5.92995 103.24 6.70995C103.24 7.57995 103.97 7.87995 105.83 8.52995C107.35 9.07995 109.45 9.72995 109.45 12C109.45 14.03 107.8 15.39 105.18 15.39C102.56 15.39 100.84 14.02 100.84 11.9H100.85Z" fill="#BABABA"/>
<path d="M122.57 3.85996V5.32996C122.57 5.50996 122.47 5.60996 122.29 5.60996H119.4C119.33 5.60996 119.3 5.63996 119.3 5.70996V14.97C119.3 15.15 119.2 15.25 119.02 15.25H117.24C117.06 15.25 116.96 15.15 116.96 14.97V5.70996C116.96 5.63996 116.93 5.60996 116.86 5.60996H114.06C113.88 5.60996 113.78 5.50996 113.78 5.32996V3.85996C113.78 3.67996 113.88 3.57996 114.06 3.57996H122.3C122.48 3.57996 122.58 3.67996 122.58 3.85996H122.57Z" fill="#BABABA"/>
<path d="M133.53 15.02L133.06 13.47C133.04 13.4 133.01 13.39 132.96 13.39H128.87C128.87 13.39 128.79 13.41 128.77 13.47L128.3 15.02C128.25 15.17 128.15 15.25 127.98 15.25H126.05C125.85 15.25 125.75 15.12 125.82 14.93L129.37 3.80996C129.42 3.65996 129.52 3.57996 129.69 3.57996H132.14C132.31 3.57996 132.41 3.65996 132.46 3.80996L136.01 14.93C136.08 15.11 135.98 15.25 135.78 15.25H133.85C133.68 15.25 133.58 15.17 133.53 15.02ZM129.44 11.57H132.39C132.46 11.57 132.49 11.54 132.47 11.45L130.97 6.35996C130.94 6.27996 130.87 6.27996 130.84 6.35996L129.36 11.45C129.34 11.53 129.38 11.57 129.44 11.57Z" fill="#BABABA"/>
<path d="M140.55 11.38V3.85996C140.55 3.67996 140.65 3.57996 140.83 3.57996H142.61C142.79 3.57996 142.89 3.67996 142.89 3.85996V11.4C142.89 12.57 143.67 13.37 144.86 13.37C146.05 13.37 146.83 12.57 146.83 11.4V3.85996C146.83 3.67996 146.93 3.57996 147.11 3.57996H148.89C149.07 3.57996 149.17 3.67996 149.17 3.85996V11.38C149.17 13.78 147.44 15.38 144.85 15.38C142.26 15.38 140.53 13.78 140.53 11.38H140.55Z" fill="#BABABA"/>
<path d="M160.61 15.0299L158.56 10.4899C158.54 10.4399 158.49 10.4099 158.44 10.4099H156.92C156.85 10.4099 156.82 10.4399 156.82 10.5099V14.9599C156.82 15.1399 156.72 15.2399 156.54 15.2399H154.76C154.58 15.2399 154.48 15.1399 154.48 14.9599V3.83994C154.48 3.65994 154.58 3.55994 154.76 3.55994H159.45C161.6 3.55994 163.02 4.97994 163.02 7.07994C163.02 8.59994 162.2 9.72994 160.89 10.1799C160.82 10.1999 160.81 10.2599 160.84 10.3099L163.04 14.9099C163.14 15.0899 163.06 15.2399 162.84 15.2399H160.96C160.81 15.2399 160.69 15.1599 160.63 15.0199L160.61 15.0299ZM156.82 5.68994V8.48994C156.82 8.53994 156.85 8.58994 156.92 8.58994H159.09C160.02 8.58994 160.67 7.98994 160.67 7.10994C160.67 6.22994 160.02 5.58994 159.09 5.58994H156.92C156.85 5.58994 156.82 5.61994 156.82 5.68994Z" fill="#BABABA"/>
<path d="M175.49 15.02L175.02 13.47C175 13.4 174.97 13.39 174.92 13.39H170.83C170.83 13.39 170.75 13.41 170.73 13.47L170.26 15.02C170.21 15.17 170.11 15.25 169.94 15.25H168.01C167.81 15.25 167.71 15.12 167.78 14.93L171.33 3.80996C171.38 3.65996 171.48 3.57996 171.65 3.57996H174.1C174.27 3.57996 174.37 3.65996 174.42 3.80996L177.97 14.93C178.04 15.11 177.94 15.25 177.74 15.25H175.81C175.64 15.25 175.54 15.17 175.49 15.02ZM171.4 11.57H174.35C174.42 11.57 174.45 11.54 174.43 11.45L172.93 6.35996C172.9 6.27996 172.83 6.27996 172.8 6.35996L171.32 11.45C171.3 11.53 171.34 11.57 171.4 11.57Z" fill="#BABABA"/>
<path d="M182.83 14.97V3.85996C182.83 3.67996 182.93 3.57996 183.11 3.57996H184.83C184.98 3.57996 185.08 3.62996 185.16 3.75996L189.33 10.7C189.38 10.78 189.45 10.77 189.45 10.67V3.85996C189.45 3.67996 189.55 3.57996 189.73 3.57996H191.48C191.66 3.57996 191.76 3.67996 191.76 3.85996V14.97C191.76 15.15 191.66 15.25 191.48 15.25H189.78C189.63 15.25 189.53 15.18 189.45 15.05L185.26 8.04996C185.21 7.96996 185.14 7.97996 185.14 8.07996L185.16 14.97C185.16 15.15 185.06 15.25 184.88 15.25H183.11C182.93 15.25 182.83 15.15 182.83 14.97Z" fill="#BABABA"/>
<path d="M205.4 3.85996V5.32996C205.4 5.50996 205.3 5.60996 205.12 5.60996H202.23C202.16 5.60996 202.13 5.63996 202.13 5.70996V14.97C202.13 15.15 202.03 15.25 201.85 15.25H200.07C199.89 15.25 199.79 15.15 199.79 14.97V5.70996C199.79 5.63996 199.76 5.60996 199.69 5.60996H196.89C196.71 5.60996 196.61 5.50996 196.61 5.32996V3.85996C196.61 3.67996 196.71 3.57996 196.89 3.57996H205.13C205.31 3.57996 205.41 3.67996 205.41 3.85996H205.4Z" fill="#BABABA"/>
</svg>
