<svg width="136" height="59" viewBox="0 0 136 59" fill="none" xmlns="http://www.w3.org/2000/svg">
<path d="M97.3952 30.8923C99.3682 30.2968 99.0166 29.5579 98.8444 28.2952C97.7396 28.9983 96.7567 29.3211 95.5873 29.6153C95.4582 27.8935 95.4438 27.5993 94.8196 26.6236C94.095 25.777 93.0691 26.7599 91.993 27.2047L96.2258 21.0205C96.9863 21.0779 97.4957 18.531 96.8787 18.1794C95.7667 17.5481 92.7678 19.2628 93.2341 20.138C92.8826 20.999 92.4521 21.7164 91.9786 22.3118C91.4119 23.0078 91.0244 23.718 90.7518 24.4211L90.4146 24.6507C89.2667 26.8388 88.2695 28.2306 87.5162 28.3885L84.6465 29.5292C82.6736 30.5838 81.3535 30.8421 80.9804 29.931C80.9087 29.3929 82.6233 28.575 84.2376 27.7643C85.2635 27.341 85.1343 26.516 84.4528 25.5116C82.2933 25.8201 80.2271 26.8604 78.2111 28.3885L77.4722 29.4359C75.3055 32.5352 73.5191 34.4436 72.1704 34.9817C72.5004 32.6572 74.1433 29.7086 76.066 26.6308C76.7045 25.2103 78.1896 23.0651 79.768 20.8411C80.9159 19.7219 81.0091 18.7247 79.9975 17.871C78.1107 17.5194 77.0919 19.2341 76.1593 21.1424L75.4777 21.8096C74.6096 23.2876 73.4044 24.7583 72.0197 26.2362C70.7499 27.8863 69.3078 29.0557 67.7367 29.8305C66.3807 28.7042 64.4437 29.1274 62.2411 30.2968C63.2814 28.6826 64.6517 28.0513 66.2875 28.2952C67.2703 28.41 67.7941 28.0441 67.7295 27.0541C64.9459 24.5646 62.1766 25.282 59.4216 27.793C57.212 28.5104 56.1717 27.7715 55.7556 26.2649C58.1159 23.2732 58.7616 20.9703 57.3339 19.4923C54.457 19.7937 53.5674 22.0894 53.058 24.7511C53.3307 25.3251 53.4454 25.7914 53.2733 26.0568C49.0404 33.0159 45.0156 36.9618 41.1487 38.454C39.9865 38.5401 40.5748 33.8481 41.2061 29.0557C42.0311 25.5618 41.6078 23.1656 39.6277 23.4454C36.4854 23.883 22.682 39.8674 22.2731 38.6764C21.6633 37.4138 29.347 26.351 30.5307 22.6275C34.6703 15.3599 34.9644 10.9908 30.5307 10.1801C22.7825 9.52724 8.92173 18.9543 7.61601 22.5486C6.1955 26.681 8.08234 27.8863 10.8014 28.3526C12.6452 28.862 13.3411 27.2478 9.71808 26.1142C8.16843 24.5502 9.41676 23.1369 10.8803 21.5155C13.5061 19.4565 16.4763 17.5768 19.6258 15.7976C25.2935 13.0498 30.0931 11.5576 30.6814 13.2866C30.7029 16.5652 27.9695 19.7506 25.9177 23.2804C22.8757 28.3239 20.4006 32.8222 19.3245 35.9861C18.2914 39.4943 18.8007 40.8861 20.0204 41.3094C23.2847 42.5362 27.9552 37.2272 32.9054 31.6026C34.4981 29.7301 36.1123 28.0082 37.7696 26.5375C37.167 29.2709 36.7437 32.1909 36.4639 35.2543C36.1052 40.1113 38.3077 42.1775 40.998 41.295C42.3683 40.7283 44.3771 39.7884 45.977 38.0666C46.9312 37.3779 48.0432 36.1582 49.1983 34.788C51.1353 32.8509 52.8356 30.5049 54.4212 27.9652L54.7297 28.08C55.7054 29.0557 56.9035 29.7157 58.2881 30.1103C58.5464 32.1765 59.8378 32.8079 61.9327 32.32C64.4293 31.1075 65.8929 30.9354 66.517 31.5954C67.9734 32.1119 69.7598 30.6412 71.5749 28.9624L70.7283 30.4977C68.5187 34.953 69.2433 36.4022 70.7499 37.055C72.4071 37.5572 75.1621 34.7951 78.1681 31.2941C79.0362 31.4734 79.5025 31.8608 79.8254 32.3272C79.1725 32.5209 78.6416 32.8007 78.2542 33.1737L76.1162 34.7808C75.9082 35.6776 76.3458 36.4022 77.0848 37.0407C78.8712 37.6075 80.8872 36.7824 83.0394 35.1323C83.9219 34.2714 84.216 33.1809 84.0725 31.9254C84.2304 31.4017 85.8805 30.7632 87.3942 30.139C86.5979 31.208 86.2535 32.3487 86.2392 33.5396C86.9997 35.1108 88.0399 34.7449 89.2094 33.4248C90.3142 31.3658 91.6271 29.7659 93.105 28.5176C92.7463 31.1004 95.2932 31.8824 97.4096 30.921L97.3952 30.8923Z" fill="#61BB46"/>
<path d="M108.02 23.1584C109.118 21.0061 110.022 18.9543 110.639 17.0674L111.364 14.0255C112.325 10.3093 108.932 8.53003 104.562 9.30485L97.7182 12.4902C94.2243 14.291 90.7519 16.1635 87.6455 19.5426C85.486 21.702 83.7713 23.675 84.374 24.6363C84.9479 25.8847 86.0312 26.6667 87.7387 26.8675C88.8005 27.011 89.726 25.7699 88.614 25.3035C88.492 25.1529 87.9826 25.0524 87.0069 25.0094C86.4545 24.6937 86.0599 24.4211 86.1317 24.2417C86.0671 24.1485 86.4402 23.4669 87.172 22.3047C87.3226 22.111 87.5665 21.8814 87.8535 21.6446L88.5853 20.7909C89.891 19.5498 91.247 18.366 92.7105 17.3042C93.4782 16.7231 94.4539 16.0415 95.6735 15.2523C99.0096 13.3512 102.303 11.6222 105.201 11.163C107.224 10.8473 108.494 11.3926 108.422 13.4516C108.322 15.1447 107.769 17.2612 105.481 21.0348L103.996 23.883L98.9952 31.703L96.9434 34.7951L96.0968 36.2659C95.0565 37.8514 94.2602 39.3508 94.5041 40.5059C95.1928 41.7542 97.9119 41.6753 98.8374 39.4441C98.9378 38.906 99.1889 38.1168 99.6409 36.9905C102.482 32.7361 105.05 28.5965 107.095 24.6507C107.468 24.3422 107.762 23.7969 108.035 23.1656L108.02 23.1584Z" fill="#61BB46"/>
<path d="M128.955 28.5105C128.431 27.8002 127.563 28.2594 127.004 28.7974C126.717 29.0916 126.444 29.3283 126.243 29.3355C125.928 29.6655 125.44 29.9955 124.945 30.3256L124.263 30.7058C123.696 31.1004 123.582 30.9497 123.725 30.469C124.356 29.5651 124.737 28.7687 124.93 28.0657C125.031 27.2621 124.521 26.7886 123.79 26.4443C122.491 26.2434 121.135 27.2837 119.765 28.6898C120.489 27.4917 121.279 26.2147 121.451 25.5905C121.867 24.457 121.25 23.8041 119.88 23.4956C119.37 23.4454 119.062 24.0193 118.768 24.6292C118.595 25.117 118.344 25.5188 118.043 25.8703C117.907 26.2721 117.684 26.5806 117.404 26.8388L117.082 27.4415C116.687 27.9652 116.465 28.3741 116.314 28.7257C115.977 29.5507 115.41 30.1892 114.499 30.548C113.803 31.1004 113.609 30.9928 113.674 30.548C115.216 28.6611 115.561 27.2263 113.918 26.5447C112.418 25.8631 111.127 27.2478 109.871 28.6109C111.974 25.5403 112.088 23.8328 110.094 23.5674C109.513 23.2087 108.752 24.3063 107.884 26.1429C106.679 28.1015 105.825 29.601 105.366 30.5838C104.347 33.0303 104.885 34.0921 106.428 34.2571C108.236 33.8553 109.577 31.6672 111.371 30.1032L111.084 31.1721C111.012 31.7102 111.148 32.0402 111.349 32.3128C111.658 32.5568 112.232 32.7792 112.433 32.7289C112.519 32.7074 113.882 32.6429 113.882 32.5855C114.111 32.5855 114.449 32.3846 114.771 32.198C114.865 32.4492 114.901 32.8437 114.936 33.2312C115.051 33.6616 115.611 33.9845 116.386 34.2499C117.326 34.2642 118.179 33.3101 119.026 32.2196C119.22 32.1048 119.356 31.9828 119.456 31.8393L120.475 30.8349C120.898 30.2753 121.171 30.0601 121.329 30.096C120.769 31.1363 120.855 31.8609 121.616 32.4563C122.591 32.9227 123.567 32.8222 124.55 32.32C124.859 32.1981 125.11 32.0617 125.282 31.9111C125.418 31.7676 125.569 31.66 125.734 31.5739C126.2 31.4089 126.552 31.2008 126.788 30.9354L127.692 30.1605C128.747 29.6081 129.177 29.0629 128.934 28.5176L128.955 28.5105Z" fill="#61BB46"/>
<path d="M45.3083 48.5675V45.8771C45.3083 44.1051 46.5567 42.9285 48.4292 42.9285C50.3017 42.9285 51.5213 44.1194 51.5213 45.6404V45.6619C51.5213 45.791 51.4496 45.8628 51.3204 45.8628H50.0362C49.9071 45.8628 49.8353 45.8125 49.8353 45.7695V45.6834C49.8353 44.966 49.3044 44.3777 48.4292 44.3777C47.5539 44.3777 47.0015 44.966 47.0015 45.8269V48.6105C47.0015 49.4714 47.64 50.0597 48.4866 50.0597C49.3331 50.0597 49.8569 49.6006 49.8569 48.8114V48.2805C49.8569 48.2805 49.8353 48.2088 49.7851 48.2088H48.5153C48.3861 48.2088 48.3144 48.137 48.3144 48.0079V47.025C48.3144 46.8959 48.3861 46.8241 48.5153 46.8241H51.3204C51.4496 46.8241 51.5213 46.8959 51.5213 47.025V48.5459C51.5213 50.3969 50.2873 51.5089 48.4292 51.5089C46.571 51.5089 45.3083 50.318 45.3083 48.5603V48.5675Z" fill="white"/>
<path d="M59.5709 51.2721L58.093 48.0078C58.093 48.0078 58.0428 47.9504 58.0069 47.9504H56.9164C56.8662 47.9504 56.8447 47.972 56.8447 48.0222V51.2219C56.8447 51.3511 56.7729 51.4228 56.6438 51.4228H55.3596C55.2304 51.4228 55.1587 51.3511 55.1587 51.2219V43.2226C55.1587 43.0934 55.2304 43.0145 55.3596 43.0145H58.7315C60.2811 43.0145 61.2999 44.0333 61.2999 45.5471C61.2999 46.6376 60.7116 47.4554 59.7646 47.7783C59.7144 47.7926 59.7072 47.8357 59.7287 47.8715L61.3142 51.1861C61.386 51.3152 61.3286 51.4228 61.1708 51.4228H59.8148C59.7072 51.4228 59.6211 51.3654 59.5781 51.265L59.5709 51.2721ZM56.8447 44.5498V46.5658C56.8447 46.6017 56.8662 46.6376 56.9164 46.6376H58.4732C59.1476 46.6376 59.6139 46.2071 59.6139 45.5686C59.6139 44.9301 59.1476 44.4781 58.4732 44.4781H56.9164C56.8662 44.4781 56.8447 44.4996 56.8447 44.5498Z" fill="white"/>
<path d="M64.7507 48.5101V45.9417C64.7507 44.1409 66.0134 42.9285 67.9074 42.9285C69.8014 42.9285 71.0785 44.1409 71.0785 45.9417V48.5101C71.0785 50.3323 69.8158 51.5592 67.9074 51.5592C65.9991 51.5592 64.7507 50.3323 64.7507 48.5101ZM69.3782 48.5675V45.9273C69.3782 44.9947 68.7899 44.3777 67.9003 44.3777C67.0106 44.3777 66.4367 44.9875 66.4367 45.9273V48.5675C66.4367 49.493 67.025 50.1028 67.9003 50.1028C68.7755 50.1028 69.3782 49.493 69.3782 48.5675Z" fill="white"/>
<path d="M74.7014 48.6464V43.237C74.7014 43.1079 74.7731 43.0361 74.9022 43.0361H76.1864C76.3156 43.0361 76.3873 43.1079 76.3873 43.237V48.6608C76.3873 49.5002 76.9541 50.0741 77.8007 50.0741C78.6472 50.0741 79.214 49.5002 79.214 48.6608V43.237C79.214 43.1079 79.2857 43.0361 79.4149 43.0361H80.6991C80.8282 43.0361 80.9 43.1079 80.9 43.237V48.6464C80.9 50.3754 79.6516 51.5233 77.7935 51.5233C75.9353 51.5233 74.687 50.3683 74.687 48.6464H74.7014Z" fill="white"/>
<path d="M90.8221 45.6188C90.8221 47.1398 89.7316 48.1657 88.0959 48.1657H86.4027C86.3669 48.1657 86.331 48.1872 86.331 48.2374V51.2219C86.331 51.3511 86.2592 51.4228 86.1301 51.4228H84.8459C84.7168 51.4228 84.645 51.3511 84.645 51.2219V43.2226C84.645 43.0934 84.7168 43.0145 84.8459 43.0145H88.1676C89.7603 43.0145 90.8221 44.062 90.8221 45.6188ZM89.1433 45.6547C89.1433 44.9444 88.6483 44.4781 87.9165 44.4781H86.4027C86.3525 44.4781 86.331 44.4996 86.331 44.5498V46.7308C86.331 46.781 86.3525 46.8026 86.4027 46.8026H87.9165C88.6483 46.8026 89.1433 46.3362 89.1433 45.6475V45.6547Z" fill="white"/>
</svg>
