<?xml version="1.0" standalone="no"?>
<!DOCTYPE svg PUBLIC "-//W3C//DTD SVG 20010904//EN"
 "http://www.w3.org/TR/2001/REC-SVG-20010904/DTD/svg10.dtd">
<svg version="1.0" xmlns="http://www.w3.org/2000/svg"
 width="72.000000pt" height="72.000000pt" viewBox="0 0 72.000000 72.000000"
 preserveAspectRatio="xMidYMid meet">
<metadata>
Created by potrace 1.14, written by Peter Selinger 2001-2017
</metadata>
<g transform="translate(0.000000,72.000000) scale(0.100000,-0.100000)"
fill="#000000" stroke="none">
<path d="M269 687 c-103 -29 -184 -101 -231 -203 -18 -39 -23 -67 -23 -134 0
-76 3 -93 33 -152 38 -77 92 -130 171 -167 80 -37 201 -37 282 1 79 36 133 89
171 166 29 59 33 76 33 152 0 99 -26 168 -90 239 -78 86 -233 130 -346 98z"/>
</g>
</svg>
